<svg width="180" height="180" viewBox="0 0 180 180" xmlns="http://www.w3.org/2000/svg">
  <!-- Fons suau -->
  <rect x="0" y="0" width="180" height="180" rx="36" fill="#FFF7E5"/>

  <!-- Ales -->
  <ellipse cx="60" cy="95" rx="26" ry="34" fill="#E6F6FF" stroke="#1A1A1A" stroke-width="4" opacity="0.9"/>
  <ellipse cx="120" cy="95" rx="26" ry="34" fill="#E6F6FF" stroke="#1A1A1A" stroke-width="4" opacity="0.9"/>

  <!-- Cos -->
  <ellipse cx="90" cy="110" rx="34" ry="40" fill="#FFC93C" stroke="#1A1A1A" stroke-width="5"/>

  <!-- Franges -->
  <rect x="60" y="96" width="60" height="10" fill="#1A1A1A" opacity="0.9"/>
  <rect x="60" y="114" width="60" height="10" fill="#1A1A1A" opacity="0.9"/>

  <!-- Cap -->
  <circle cx="90" cy="60" r="22" fill="#1A1A1A"/>

  <!-- Ulls -->
  <circle cx="82" cy="56" r="4" fill="#FFFFFF"/>
  <circle cx="98" cy="56" r="4" fill="#FFFFFF"/>

  <!-- Galtes suaus -->
  <circle cx="76" cy="62" r="3" fill="#FF9E7A" opacity="0.8"/>
  <circle cx="104" cy="62" r="3" fill="#FF9E7A" opacity="0.8"/>

  <!-- Somriure -->
  <path d="M80 68 Q90 74 100 68" stroke="#FFFFFF" stroke-width="2" stroke-linecap="round" fill="none"/>

  <!-- Antenes -->
  <line x1="80" y1="42" x2="70" y2="28" stroke="#1A1A1A" stroke-width="4" stroke-linecap="round"/>
  <line x1="100" y1="42" x2="110" y2="28" stroke="#1A1A1A" stroke-width="4" stroke-linecap="round"/>

  <!-- Ombra suau sota la abella -->
  <ellipse cx="90" cy="145" rx="40" ry="8" fill="#E0D4B8" opacity="0.6"/>
</svg>

