<svg width="512" height="512" viewBox="0 0 512 512" xmlns="http://www.w3.org/2000/svg">

  <!-- Cercle exterior -->
  <circle cx="256" cy="256" r="240" fill="#F7F3E8"/>

  <!-- Hexàgons naturalistes (fons) -->
  <g fill="#E8DFAF" stroke="#C7B98A" stroke-width="3" opacity="0.55">
    <polygon points="180,140 210,120 240,140 240,175 210,195 180,175"/>
    <polygon points="280,110 310,90 340,110 340,145 310,165 280,145"/>
    <polygon points="320,200 350,180 380,200 380,235 350,255 320,235"/>
    <polygon points="200,260 230,240 260,260 260,295 230,315 200,295"/>
    <polygon points="140,200 170,180 200,200 200,235 170,255 140,235"/>
  </g>

  <!-- Ales de l'abella -->
  <ellipse cx="200" cy="260" rx="70" ry="100" fill="#E6F6FF" stroke="#1A1A1A" stroke-width="6" opacity="0.85"/>
  <ellipse cx="310" cy="260" rx="70" ry="100" fill="#E6F6FF" stroke="#1A1A1A" stroke-width="6" opacity="0.85"/>

  <!-- Cos de l'abella -->
  <ellipse cx="256" cy="300" rx="80" ry="110" fill="#FFC93C" stroke="#1A1A1A" stroke-width="8"/>

  <!-- Franges -->
  <rect x="190" y="260" width="130" height="25" fill="#1A1A1A" opacity="0.9"/>
  <rect x="190" y="305" width="130" height="25" fill="#1A1A1A" opacity="0.9"/>

  <!-- Cap -->
  <circle cx="256" cy="180" r="55" fill="#1A1A1A"/>

  <!-- Ulls -->
  <circle cx="238" cy="170" r="10" fill="#FFFFFF"/>
  <circle cx="274" cy="170" r="10" fill="#FFFFFF"/>

  <!-- Galtes -->
  <circle cx="230" cy="190" r="8" fill="#FF9E7A" opacity="0.8"/>
  <circle cx="282" cy="190" r="8" fill="#FF9E7A" opacity="0.8"/>

  <!-- Somriure -->
  <path d="M235 205 Q256 220 277 205" stroke="#FFFFFF" stroke-width="4" stroke-linecap="round" fill="none"/>

  <!-- Antenes -->
  <line x1="235" y1="140" x2="210" y2="110" stroke="#1A1A1A" stroke-width="8" stroke-linecap="round"/>
  <line x1="277" y1="140" x2="302" y2="110" stroke="#1A1A1A" stroke-width="8" stroke-linecap="round"/>

  <!-- Ombra suau -->
  <ellipse cx="256" cy="400" rx="120" ry="25" fill="#D8CDB5" opacity="0.6"/>

</svg>
