<svg width="512" height="512" viewBox="0 0 512 512" xmlns="http://www.w3.org/2000/svg">

  <!-- Cercle exterior -->
  <circle cx="256" cy="256" r="240" fill="#F7F3E8"/>

  <!-- Xarxa neuronal orgànica en blau xenó -->
  <g stroke="#4FC3FF" stroke-width="4" stroke-linecap="round" opacity="0.85">
    <line x1="150" y1="180" x2="210" y2="220"/>
    <line x1="210" y1="220" x2="280" y2="190"/>
    <line x1="280" y1="190" x2="340" y2="240"/>
    <line x1="340" y1="240" x2="300" y2="300"/>
    <line x1="300" y1="300" x2="220" y2="280"/>
    <line x1="220" y1="280" x2="160" y2="230"/>
  </g>

  <g fill="#4FC3FF" opacity="0.9">
    <circle cx="150" cy="180" r="10"/>
    <circle cx="210" cy="220" r="10"/>
    <circle cx="280" cy="190" r="10"/>
    <circle cx="340" cy="240" r="10"/>
    <circle cx="300" cy="300" r="10"/>
    <circle cx="220" cy="280" r="10"/>
    <circle cx="160" cy="230" r="10"/>
  </g>

  <!-- Ales de l'abella -->
  <ellipse cx="200" cy="260" rx="70" ry="100" fill="#E6F6FF" stroke="#1A1A1A" stroke-width="6" opacity="0.85"/>
  <ellipse cx="310" cy="260" rx="70" ry="100" fill="#E6F6FF" stroke="#1A1A1A" stroke-width="6" opacity="0.85"/>

  <!-- Cos de l'abella -->
  <ellipse cx="256" cy="300" rx="80" ry="110" fill="#FFC93C" stroke="#1A1A1A" stroke-width="8"/>

  <!-- Franges -->
  <rect x="190" y="260" width="130" height="25" fill="#1A1A1A" opacity="0.9"/>
  <rect x="190" y="305" width="130" height="25" fill="#1A1A1A" opacity="0.9"/>

  <!-- Cap -->
  <circle cx="256" cy="180" r="55" fill="#1A1A1A"/>

  <!-- Ulls -->
  <circle cx="238" cy="170" r="10" fill="#FFFFFF"/>
  <circle cx="274" cy="170" r="10" fill="#FFFFFF"/>

  <!-- Galtes -->
  <circle cx="230" cy="190" r="8" fill="#FF9E7A" opacity="0.8"/>
  <circle cx="282" cy="190" r="8" fill="#FF9E7A" opacity="0.8"/>

  <!-- Somriure -->
  <path d="M235 205 Q256 220 277 205" stroke="#FFFFFF" stroke-width="4" stroke-linecap="round" fill="none"/>

  <!-- Antenes -->
  <line x1="235" y1="140" x2="210" y2="110" stroke="#1A1A1A" stroke-width="8" stroke-linecap="round"/>
  <line x1="277" y1="140" x2="302" y2="110" stroke="#1A1A1A" stroke-width="8" stroke-linecap="round"/>

  <!-- Ombra suau -->
  <ellipse cx="256" cy="400" rx="120" ry="25" fill="#D8CDB5" opacity="0.6"/>

</svg>
